# xmcd CD database file
#
# Track frame offsets:
#	150
#	34598
#	77257
#	101998
#
# Disc length: 1999 seconds
#
# Revision: 0
# Processed by: cddbd v1.5.2PL0 Copyright (c) Steve Scherf et al.
# Submitted via: CDex 1.51
#
DISCID=2307cd04
DTITLE=Joshua Redman - Joshua Redman Live with Brad Mehldau January 1994
DYEAR=1994
DGENRE=Jazz
TTITLE0=Straight Ahead
TTITLE1=Groove X By Any Means Necessary
TTITLE2=Soul Dance
TTITLE3=Sophisticated Lady
EXTD=YEAR: 1994
EXTT0=
EXTT1=
EXTT2=
EXTT3=
PLAYORDER=
